HIERARCHY
ROOT HipCenter
{
    OFFSET 0.0 0.0 -0.0
    CHANNELS 6 Xposition Yposition Zposition Zrotation Xrotation Yrotation
    JOINT Spine
    {
        OFFSET 0.0 12.100537300109863 0.0
        CHANNELS 3 Zrotation Xrotation Yrotation
        JOINT ShoulderCenter
        {
            OFFSET 0.0 33.47124099731445 0.0
            CHANNELS 3 Zrotation Xrotation Yrotation
            JOINT LeftShoulder
            {
                OFFSET 19.03068733215332 0.0 0.0
                CHANNELS 3 Zrotation Xrotation Yrotation
                JOINT LeftElbow
                {
                    OFFSET 29.755142211914062 0.0 0.0
                    CHANNELS 3 Zrotation Xrotation Yrotation
                    JOINT LeftWrist
                    {
                        OFFSET 29.606863021850586 0.0 0.0
                        CHANNELS 3 Zrotation Xrotation Yrotation
                        JOINT LeftHand
                        {
                            OFFSET 4.407874584197998 0.0 0.0
                            CHANNELS 3 Zrotation Xrotation Yrotation
                            End Site
                            {
                                OFFSET 1.7631494998931885 0.0 0.0
                            }
                        }
                    }
                }
            }
            JOINT RightShoulder
            {
                OFFSET -19.03068733215332 0.0 0.0
                CHANNELS 3 Zrotation Xrotation Yrotation
                JOINT RightElbow
                {
                    OFFSET -29.755142211914062 0.0 0.0
                    CHANNELS 3 Zrotation Xrotation Yrotation
                    JOINT RightWrist
                    {
                        OFFSET -29.606863021850586 0.0 0.0
                        CHANNELS 3 Zrotation Xrotation Yrotation
                        JOINT RightHand
                        {
                            OFFSET -4.407874584197998 0.0 0.0
                            CHANNELS 3 Zrotation Xrotation Yrotation
                            End Site
                            {
                                OFFSET -1.7631494998931885 0.0 0.0
                            }
                        }
                    }
                }
            }
            End Site
            {
                OFFSET 0.0 13.388495445251465 0.0
            }
        }
    }
    JOINT LeftHip
    {
        OFFSET 13.975658416748047 0.0 0.0
        CHANNELS 3 Zrotation Xrotation Yrotation
        JOINT LeftKnee
        {
            OFFSET 0.0 -40.64470291137695 0.0
            CHANNELS 3 Zrotation Xrotation Yrotation
            JOINT LeftAnkle
            {
                OFFSET 0.0 -44.77565383911133 0.0
                CHANNELS 3 Zrotation Xrotation Yrotation
                JOINT LeftFoot
                {
                    OFFSET 0.0 -10.065956115722656 0.0
                    CHANNELS 3 Zrotation Xrotation Yrotation
                    End Site
                    {
                        OFFSET 0.0 0.0 4.0263824462890625
                    }
                }
            }
        }
    }
    JOINT RightHip
    {
        OFFSET -13.975658416748047 0.0 0.0
        CHANNELS 3 Zrotation Xrotation Yrotation
        JOINT RightKnee
        {
            OFFSET 0.0 -40.64470291137695 0.0
            CHANNELS 3 Zrotation Xrotation Yrotation
            JOINT RightAnkle
            {
                OFFSET 0.0 -44.77565383911133 0.0
                CHANNELS 3 Zrotation Xrotation Yrotation
                JOINT RightFoot
                {
                    OFFSET 0.0 -10.065956115722656 0.0
                    CHANNELS 3 Zrotation Xrotation Yrotation
                    End Site
                    {
                        OFFSET 0.0 0.0 4.0263824462890625
                    }
                }
            }
        }
    }
}
MOTION
Frames: 7
Frame Time: 0.03333333333333333
63.5 12.600000381469727 -87.69999694824219 -3.3664825656154727 11.383338764669718 1.120034751465604 -3.562399546176722 1.8531066463780654 0.10270230093494456 4.063332739201246e-07 2.75938443332172e-07 5.55912476759916 99.0146388632362 21.14866384878074 -179.4881728493181 1.2719367142144457e-06 4.9698681466241285e-06 30.796361537067348 179.99999882305568 67.01087997126969 -150.63742867782568 -3.1805546814635168e-15 1.2722218725854067e-14 3.531125038440127e-31 -94.57090916364584 6.0638000429234875 -173.83428601276077 -1.1246010196198545e-06 -2.405790358046804e-06 -35.32958072743011 179.99999929435182 -35.19561636824473 133.64025469999677 6.3611093629270335e-15 0.0 0.0 2.125416825651682 -27.01623214843341 -4.4627362419060566 2.283579292829933 45.922644173678364 -54.78195332697208 128.9338421218154 -51.40605896366248 169.99471002178223 -1.7655625192200634e-31 -6.361109362927035e-15 -3.1805546814635176e-15 -3.247563919043754 -28.314086272429606 1.9120417467137736 6.414689648754992 50.624447916639355 46.976718667047564 -112.93082116004727 -27.307128830041144 -161.49950620743866 -3.1805546814635168e-15 1.7655625192200634e-31 -6.3611093629270335e-15
63.80000305175781 12.5 -86.5999984741211 -3.878539663403783 11.935442672806932 2.8213174288669207 -4.053055299670847 1.7827257353028318 0.13203168378025276 6.46879884803991e-07 -1.5815711852451133e-06 4.361345525766583 98.91746971366149 24.003053770771682 -178.05553333577532 -1.5156854080831057e-06 -8.051028690669747e-07 29.148136100466168 -179.99999719271173 61.76242736562895 -150.3171247458985 3.1805546814635168e-15 0.0 0.0 -94.45808107694063 5.762771234792028 -173.71808923451067 1.4681721931843724e-06 1.325668406838956e-06 -36.16247042521025 179.9999999685973 -33.552986581815766 133.57465878570892 0.0 0.0 0.0 1.7164357403980697 -26.07199725969239 -6.485542144790198 1.7373212131698388 44.08732729436414 -52.05221847696619 130.411609614419 -53.47300728222455 171.57836138192314 0.0 0.0 0.0 -4.257789555908202 -32.52625241297533 -6.503743578450229 -1.6634640134443304 59.15270553434076 59.53135942943663 -110.31280192305361 -25.102251427896825 -158.79120197252894 3.1805546814635168e-15 4.4139062980501586e-32 1.5902773407317584e-15
64.0 12.399999618530273 -85.0999984741211 -4.844000295130912 11.9205503907263 3.7804841924473003 -3.955094220226757 1.869424033386998 0.1609354893048699 8.651037133017178e-08 -6.058519331099576e-07 4.098695646263006 99.28491752277795 24.662627578216153 -177.1319609872759 4.885821736691192e-06 -4.336560988842312e-07 28.04424256693674 -179.99999990423976 57.58825219293203 -150.15214537015905 0.0 0.0 0.0 -94.22408772011453 6.566593116192265 -172.9130345564215 4.4642612853449896e-06 -3.877799996271162e-06 -36.56367142074941 -179.99999724419672 -33.9376674046285 133.29695212017322 0.0 -1.987846675914698e-16 0.0 2.5698660684281527 -24.27743283204456 -9.552511368124755 -1.1754590633563997 42.46565083064827 -47.44909517001617 131.5159932575484 -53.09342094183481 172.2548998004335 2.2069531490250793e-31 -7.95138670365879e-15 3.1805546814635164e-15 -4.366127249470047 -36.17639443854256 -13.827328743967975 -15.62639698010466 65.90648368260102 76.23673045147785 -108.48354276038836 -23.882420918131693 -155.7599235062722 3.180554681463516e-15 -6.361109362927032e-15 3.180554681463516e-15
64.20000457763672 12.300000190734863 -83.4000015258789 -5.32573302566386 11.448253625959495 4.732145221554954 -4.0787202986785145 2.564142401236291 0.2579722520330715 4.374710374505332e-07 -1.2072105918912356e-06 4.032561125869903 99.29503855265042 24.428987192025563 -176.27036748861147 1.721603831440752e-06 3.0340475139154672e-06 28.0259275673539 179.99999584066026 54.15287247932735 -150.95131300230307 -3.531125038440127e-31 6.3611093629270335e-15 6.3611093629270335e-15 -93.9928793817287 7.527307707065754 -172.21032825137277 -5.323872378560815e-07 -1.7105732140949897e-07 -36.232214993541604 179.99999683573986 -34.46892676093535 132.79631956369826 6.3611093629270335e-15 6.3611093629270335e-15 -3.1805546814635168e-15 2.979638373185448 -22.163535100621832 -12.688213565691882 -3.5120079104568545 41.0963523858826 -43.81775489192551 133.0175541386142 -55.214806188346884 172.96863930332472 0.0 0.0 0.0 -5.163997134691219 -39.2516960761173 -21.297890799202158 -36.034645465766886 69.38616889605512 98.23817952866276 -107.67412754018119 -25.669668386870026 -151.075005929208 3.1805546814635168e-15 -6.361109362927035e-15 -6.361109362927035e-15
64.30000305175781 12.399999618530273 -81.5 -5.32573308204503 11.44825343593894 5.033762861062272 -4.6049316170970025 2.868284788045809 0.2918794954988539 -6.903324377470079e-07 -3.756920458371374e-07 4.380696901432734 99.256385402462 23.452595816690884 -175.43527483789708 -2.0388776626030677e-06 6.362573468181005e-06 28.222634776472518 -179.99999851032214 55.30509946988732 -151.27715310052048 6.3611093629270335e-15 -3.531125038440127e-31 -6.3611093629270335e-15 -93.74660600515678 8.402156015540614 -171.53282772630502 1.9520293650663792e-06 -4.051640256988296e-07 -35.39918263343521 -179.99999828535292 -33.414840457753364 134.934550441513 6.361109362927032e-15 1.9878466759146992e-16 3.180554681463516e-15 3.3135266052258654 -20.341681505303086 -15.09661452435245 -5.9335522765228905 39.74819659217726 -40.69787148425576 132.13165824889342 -54.11726293612257 172.05855902037143 6.3611093629270335e-15 6.3611093629270335e-15 -3.531125038440127e-31 -5.344250493154366 -43.040777167112026 -27.828421894182778 -55.75774207260503 68.13427732069927 117.50901245651563 -105.79792606880943 -26.217856076650524 -148.12336266251404 1.590277340731758e-15 -5.565970692561153e-15 -1.590277340731758e-15
64.4000015258789 12.399999618530273 -79.5999984741211 -5.855998433678752 12.465467462231468 6.395185003848035 -4.449701218449601 2.0962592889482363 0.2279637641112089 -1.2225844246936576e-07 -6.208111338825958e-07 3.7620193378814317 99.01278187443981 21.20579672808547 -174.80988121295493 2.746449772335747e-07 -5.516291514362736e-06 29.018977025308057 179.9999937361676 58.80800830797366 -150.87244086523322 0.0 0.0 -6.361109362927033e-15 -93.68722435962486 9.291888192601064 -170.6420604249902 -1.2269666153875055e-06 -6.624008273351896e-07 -34.31940841316682 179.99999396473243 -33.722806995764216 134.57233285764568 0.0 0.0 6.3611093629270335e-15 3.583766608168298 -19.95209928473438 -17.124669848621203 -7.004883319758101 38.68424361415727 -38.528340901311566 133.9073609722132 -56.10860522859434 173.16905505761662 0.0 0.0 -3.1805546814635168e-15 -6.881578278463616 -48.065420897500566 -36.529490399938965 -67.70904436014277 64.17160521861686 129.49037620405025 -104.88391562190274 -28.49966208975005 -146.0890993239344 0.0 0.0 -3.1805546814635164e-15
64.5 12.399999618530273 -77.4000015258789 -6.340206804609438 12.917832476678623 7.221229695445686 -3.603577387388728 2.1057599655760515 0.19135973439322812 4.873005725156231e-07 5.204378395651182e-07 3.3224308312639024 98.55158350093383 16.915668198174775 -174.2729392045399 3.1448968421835566e-06 2.473759330877124e-06 30.422991133491188 179.99999746153193 62.295571832275535 -151.38367291554164 0.0 -6.3611093629270335e-15 0.0 -94.15593357170063 8.892386855679767 -170.02448429904356 5.347528910731073e-06 -1.8429368060503098e-06 -33.29261477784889 179.99999797333075 -35.31662440483807 133.36405505136932 0.0 6.3611093629270335e-15 0.0 4.103420742555381 -18.701674379317858 -19.117348026740494 -8.235673505722376 37.51931158953738 -36.66000946650874 133.82957050094066 -55.694687799572016 173.12614743103833 3.531125038440127e-31 6.361109362927033e-15 -6.361109362927033e-15 -8.051060807966577 -52.55063718812424 -43.96652467142578 -71.71352550161993 59.45260807038154 132.7674051150154 -104.28880002197329 -30.319493242327 -146.8614974862257 8.827812596100317e-32 -6.361109362927033e-15 1.5902773407317582e-15
